<?xml version="1.0" encoding="utf-8"?><!-- Uploaded to: SVG Repo, www.svgrepo.com, Generator: SVG Repo Mixer Tools -->
<svg fill="#000000" width="800px" height="800px" viewBox="0 0 24 24" id="cashier-machine" data-name="Flat Line" xmlns="http://www.w3.org/2000/svg" class="icon flat-line"><path id="secondary" d="M19.23,11.68a1,1,0,0,0-.95-.68H5.72a1,1,0,0,0-1,.68L3,17H21Z" style="fill: rgb(44, 169, 188); stroke-width: 2;"></path><path id="primary" d="M19,4V6a1,1,0,0,1-1,1H12a1,1,0,0,1-1-1V4a1,1,0,0,1,1-1h6A1,1,0,0,1,19,4ZM15,7v4m4.23.68a1,1,0,0,0-.95-.68H5.72a1,1,0,0,0-1,.68L3,17v3a1,1,0,0,0,1,1H20a1,1,0,0,0,1-1V17ZM3,17v3a1,1,0,0,0,1,1H20a1,1,0,0,0,1-1V17Z" style="fill: none; stroke: rgb(0, 0, 0); stroke-linecap: round; stroke-linejoin: round; stroke-width: 2;"></path></svg>